<?xml version="1.0" encoding="utf-8"?>
<!-- Generator: Adobe Illustrator 19.1.0, SVG Export Plug-In . SVG Version: 6.00 Build 0)  -->
<svg version="1.1" id="Layer_1" xmlns="http://www.w3.org/2000/svg" xmlns:xlink="http://www.w3.org/1999/xlink" x="0px" y="0px"
	 viewBox="0 0 300 47.2" style="enable-background:new 0 0 300 47.2;" xml:space="preserve">
<style type="text/css">
	.st0{fill:#FFFFFF;}
	.st1{fill:#ED1C2E;}
</style>
<path class="st0" d="M29.3,14.1h-9.4l0.9-3.3c0.6-2.1,0.8-3.4,0.8-3.9c0-0.5-0.4-0.8-1.1-0.8c-0.6,0-1,0.2-1.4,0.7
	c-0.3,0.4-0.7,1.6-1.2,3.4l-4.6,17.2c-0.4,1.6-0.6,2.7-0.5,3.2c0.1,0.5,0.4,0.8,1,0.8c0.7,0,1.2-0.3,1.6-0.9
	c0.4-0.6,0.8-1.7,1.3-3.3l1.1-4.2H16l1.5-5.5h11l-5.2,19.3h-5.9l-0.2-2.6c-0.9,1.1-2,1.9-3.1,2.5c-1.1,0.6-2.3,0.8-3.7,0.8
	c-1.6,0-2.9-0.4-4.1-1.1c-1.2-0.8-2-1.7-2.4-2.8c-0.4-1.1-0.5-2.3-0.4-3.6c0.2-1.2,0.6-3.1,1.2-5.6l2.9-10.7
	c0.9-3.4,1.8-5.9,2.6-7.5c0.8-1.6,2.2-3,4.3-4.3C16.6,0.7,19.1,0,21.9,0c2.7,0,4.9,0.6,6.4,1.7c1.5,1.1,2.3,2.5,2.5,4
	c0.1,1.6-0.2,3.8-1,6.8L29.3,14.1z"/>
<path class="st0" d="M49,22.5H37.4l-1.7,6.4c-0.4,1.3-0.5,2.2-0.4,2.6c0.1,0.4,0.4,0.6,1,0.6c0.7,0,1.2-0.3,1.6-0.8
	c0.4-0.5,0.7-1.5,1.1-3l1-3.9h8.5l-0.6,2.2c-0.5,1.8-1,3.2-1.5,4.2c-0.5,1-1.3,2-2.5,3.1s-2.4,1.9-3.9,2.5c-1.5,0.6-3.2,0.8-5.1,0.8
	c-1.9,0-3.5-0.3-4.8-0.8c-1.3-0.6-2.2-1.3-2.8-2.3c-0.6-1-0.8-2-0.8-3.2c0-1.1,0.3-2.8,0.9-5l2.3-8.6c0.7-2.6,1.6-4.6,2.7-6.1
	c1.1-1.5,2.6-2.6,4.4-3.4c1.8-0.8,3.7-1.2,5.8-1.2c2.5,0,4.5,0.5,5.9,1.4c1.4,1,2.2,2.2,2.4,3.8c0.2,1.6,0,3.8-0.8,6.7L49,22.5z
	 M41.3,17.7l0.6-2.2c0.4-1.5,0.6-2.5,0.5-3c0-0.4-0.3-0.7-0.8-0.7c-0.6,0-1.1,0.2-1.3,0.6c-0.2,0.4-0.6,1.4-1,3.1l-0.6,2.2H41.3z"/>
<path class="st0" d="M63.4,7.2l-0.9,2.7c0.9-1.1,2-1.9,3-2.4C66.6,7,67.8,6.7,69,6.7c1.5,0,2.7,0.4,3.5,1.1c0.8,0.7,1.2,1.6,1.1,2.8
	c0,1.1-0.4,3-1.1,5.5L67,36.8h-9l5.5-20.5c0.5-2,0.8-3.3,0.8-3.7c0-0.4-0.3-0.7-0.9-0.7c-0.6,0-1.1,0.3-1.4,0.8
	c-0.3,0.5-0.7,1.9-1.3,4.1l-5.4,20h-9l7.9-29.6H63.4z"/>
<path class="st0" d="M92.6,22.5H80.9l-1.7,6.4c-0.4,1.3-0.5,2.2-0.4,2.6c0.1,0.4,0.4,0.6,1,0.6c0.7,0,1.2-0.3,1.6-0.8
	c0.4-0.5,0.7-1.5,1.1-3l1-3.9H92l-0.6,2.2c-0.5,1.8-1,3.2-1.5,4.2c-0.5,1-1.3,2-2.5,3.1c-1.1,1.1-2.4,1.9-3.9,2.5
	c-1.4,0.6-3.2,0.8-5.1,0.8c-1.9,0-3.5-0.3-4.8-0.8c-1.3-0.6-2.2-1.3-2.8-2.3c-0.6-1-0.8-2-0.8-3.2c0-1.1,0.3-2.8,0.9-5l2.3-8.6
	c0.7-2.6,1.6-4.6,2.7-6.1c1.1-1.5,2.5-2.6,4.4-3.4c1.8-0.8,3.7-1.2,5.8-1.2c2.5,0,4.5,0.5,5.9,1.4c1.4,1,2.2,2.2,2.4,3.8
	c0.2,1.6,0,3.8-0.8,6.7L92.6,22.5z M84.8,17.7l0.6-2.2c0.4-1.5,0.6-2.5,0.5-3c0-0.4-0.3-0.7-0.8-0.7c-0.6,0-1.1,0.2-1.3,0.6
	c-0.2,0.4-0.6,1.4-1,3.1l-0.6,2.2H84.8z"/>
<path class="st0" d="M106.8,7.2l-1.6,4.5c2-2.8,4.3-4.3,6.8-4.5l-2.8,10.4c-1.6,0-2.9,0.2-3.8,0.7c-0.9,0.4-1.5,1.1-1.9,1.9
	c-0.4,0.8-0.8,2-1.6,4.9l-3.1,11.7h-9l7.9-29.6H106.8z"/>
<path class="st0" d="M118.4,17.7H110l0.1-0.4c0.6-2.3,1.5-4.7,2.4-5.9c0.9-1.2,2.2-2.3,4.1-3.3c1.8-1,4-1.4,6.6-1.4
	c3,0,5.2,0.5,6.5,1.6c1.3,1.1,1.8,2.4,1.7,4c-0.1,1.6-0.8,4.8-2.1,9.7l-4,14.8h-8.8l0.7-2.6c-0.8,1.1-1.8,1.9-2.8,2.4
	c-1,0.5-2.1,0.8-3.3,0.8c-1.6,0-2.9-0.4-4-1.3c-1.1-0.9-1.2-2.8-0.4-5.8l0.7-2.4c0.6-2.2,1.3-3.7,2.3-4.5c0.9-0.8,2.9-1.7,5.9-2.8
	c3.3-1.2,5.1-1.9,5.4-2.3c0.3-0.4,0.6-1.2,1-2.5c0.4-1.5,0.6-2.6,0.5-3c-0.1-0.5-0.4-0.7-1-0.7c-0.6,0-1,0.2-1.3,0.6
	c-0.3,0.4-0.6,1.4-1,3.1L118.4,17.7z M119.9,22.7c-1.7,1.1-2.8,1.9-3.2,2.7c-0.4,0.7-0.8,1.7-1.2,3.1c-0.4,1.5-0.6,2.5-0.5,3
	c0.1,0.4,0.4,0.7,1,0.7c0.6,0,1-0.2,1.2-0.5c0.3-0.3,0.6-1.3,1-2.8L119.9,22.7z"/>
<path class="st0" d="M146.3,0.8l-9.7,36h-9.2l9.7-36H146.3z"/>
<path class="st0" d="M153.7,0.8h9.4c2.5,0,4.5,0.2,5.7,0.6c1.3,0.4,2.1,1,2.6,1.7c0.5,0.8,0.7,1.7,0.7,2.8c0,1.1-0.4,2.7-1,5
	l-0.8,3.1c-0.6,2.3-1.3,4-2.1,5c-0.8,1.1-1.8,1.9-3.3,2.4c-1.4,0.6-3.2,0.8-5.2,0.8h-2.5l-3.9,14.5h-9.4L153.7,0.8z M161.4,7
	l-2.5,9.1c0.3,0,0.5,0,0.7,0c0.9,0,1.5-0.2,1.9-0.6c0.4-0.4,0.8-1.3,1.2-2.6l0.8-3c0.3-1.2,0.3-2,0.1-2.4C163.4,7.1,162.6,7,161.4,7
	z"/>
<path class="st0" d="M177.8,18.7h-8.5l0.5-2c0.6-2.3,1.3-4.1,2.2-5.3c0.9-1.2,2.2-2.3,4.1-3.3c1.8-1,4-1.4,6.6-1.4
	c3,0,5.2,0.5,6.5,1.6c1.3,1.1,1.8,2.4,1.7,4c-0.1,1.6-0.8,4.8-2.1,9.7l-4,14.8H176l0.7-2.6c-0.8,1.1-1.8,1.9-2.8,2.4
	c-1,0.5-2.1,0.8-3.3,0.8c-1.6,0-2.9-0.4-4-1.3c-1.1-0.9-1.2-2.8-0.4-5.8l0.6-2.4c0.6-2.2,1.3-3.7,2.3-4.5c0.9-0.8,2.9-1.7,5.9-2.8
	c3.3-1.2,5.1-1.9,5.4-2.3c0.3-0.4,0.6-1.2,1-2.5c0.4-1.5,0.6-2.6,0.5-3c-0.1-0.5-0.4-0.7-0.9-0.7c-0.6,0-1,0.2-1.3,0.6
	c-0.3,0.4-0.6,1.4-1,3.1L177.8,18.7z M179.5,22.7c-1.7,1.1-2.8,1.9-3.2,2.7c-0.4,0.7-0.8,1.7-1.2,3.1c-0.4,1.5-0.6,2.5-0.5,3
	c0.1,0.4,0.4,0.7,1,0.7c0.6,0,1-0.2,1.2-0.5c0.3-0.3,0.6-1.3,1-2.8L179.5,22.7z"/>
<path class="st0" d="M203.1,7.2l-0.9,2.7c0.9-1.1,2-1.9,3-2.4c1.1-0.5,2.2-0.8,3.5-0.8c1.5,0,2.7,0.4,3.5,1.1
	c0.8,0.7,1.2,1.6,1.1,2.8c0,1.1-0.4,3-1.1,5.5l-5.6,20.7h-9l5.5-20.5c0.5-2,0.8-3.3,0.8-3.7c0-0.4-0.3-0.7-0.9-0.7
	c-0.6,0-1.1,0.3-1.4,0.8c-0.3,0.5-0.7,1.9-1.3,4.1l-5.4,20h-9L194,7.2H203.1z"/>
<path class="st0" d="M216.3,7.9l1.2-4.6h9l-1.2,4.6h2.4l-1.3,4.7h-2.4l-4.2,15.8c-0.5,1.9-0.7,3-0.6,3.3c0.1,0.2,1,0.3,2.4,0.3
	l-1.3,4.8h-3.6c-2.1,0-3.5-0.1-4.3-0.3c-0.8-0.2-1.5-0.6-2-1.2c-0.5-0.6-0.7-1.3-0.7-2.1c0-0.8,0.5-2.7,1.3-5.6l4-15"/>
<path class="st0" d="M244.9,16.7h-8l0.4-1.6c0.4-1.4,0.5-2.2,0.5-2.6c-0.1-0.4-0.4-0.5-1-0.5c-0.5,0-0.9,0.2-1.3,0.5
	c-0.3,0.3-0.6,0.8-0.8,1.5c-0.2,0.9-0.4,1.6-0.3,2c0,0.4,0.3,0.9,0.8,1.4c0.5,0.5,1.6,1.2,3.3,2.2c2.3,1.3,3.7,2.5,4.2,3.6
	c0.5,1.1,0.5,2.8-0.1,4.9c-0.6,2.4-1.4,4.2-2.4,5.5c-1,1.2-2.2,2.2-3.9,2.8c-1.6,0.7-3.5,1-5.5,1c-2.3,0-4.1-0.4-5.6-1.1
	c-1.4-0.7-2.3-1.7-2.6-2.9c-0.3-1.2-0.1-3,0.6-5.5l0.4-1.4h7.9l-0.5,1.9c-0.4,1.6-0.6,2.6-0.5,3.1c0.1,0.5,0.4,0.7,1,0.7
	c0.6,0,1.1-0.2,1.5-0.5c0.3-0.3,0.6-1,0.9-2c0.4-1.4,0.5-2.3,0.2-2.7c-0.2-0.4-1.7-1.4-4.4-3.2c-2.2-1.5-3.5-2.8-3.7-4
	c-0.3-1.2-0.2-2.6,0.3-4.3c0.6-2.4,1.4-4.1,2.3-5.2c0.9-1.1,2.2-2,3.9-2.6c1.7-0.6,3.5-0.9,5.4-0.9c2,0,3.6,0.3,4.8,0.7
	c1.2,0.5,2.1,1.2,2.6,2c0.5,0.8,0.8,1.6,0.7,2.3c0,0.7-0.3,1.8-0.6,3.3L244.9,16.7z"/>
<path class="st0" d="M274.7,16.5h-9.4l1.7-6.3c0.5-1.8,0.7-3,0.6-3.4c-0.1-0.5-0.5-0.7-1.2-0.7c-0.8,0-1.3,0.3-1.7,0.8
	c-0.4,0.5-0.8,1.7-1.3,3.6L259,27.2c-0.5,1.7-0.7,2.9-0.6,3.4c0.1,0.5,0.5,0.8,1.2,0.8c0.7,0,1.2-0.3,1.6-0.8
	c0.4-0.5,0.8-1.8,1.3-3.8l1.2-4.5h9.4l-0.4,1.4c-1,3.7-2,6.4-2.9,7.9c-0.9,1.6-2.5,2.9-4.6,4.1c-2.1,1.2-4.5,1.8-7.1,1.8
	c-2.8,0-4.9-0.5-6.4-1.5c-1.5-1-2.3-2.4-2.4-4.1c-0.1-1.8,0.3-4.4,1.3-7.9l2.8-10.5c0.7-2.6,1.3-4.5,1.8-5.8
	c0.5-1.3,1.4-2.5,2.6-3.8c1.2-1.2,2.7-2.1,4.4-2.8c1.8-0.7,3.6-1,5.7-1c2.8,0,4.9,0.5,6.4,1.6c1.5,1.1,2.3,2.4,2.5,4
	c0.1,1.6-0.2,4.1-1.2,7.4L274.7,16.5z"/>
<path class="st0" d="M296,17.6l-1.9,7.2c-0.7,2.7-1.4,4.6-2,5.9c-0.6,1.2-1.5,2.4-2.6,3.5c-1.2,1.1-2.5,1.9-4,2.4
	c-1.5,0.5-3.2,0.8-4.9,0.8c-2,0-3.6-0.2-4.9-0.7c-1.3-0.4-2.2-1.1-2.7-2c-0.5-0.9-0.8-2-0.8-3.2c0-1.3,0.4-3.1,1-5.7l2-7.6
	c0.7-2.7,1.6-4.9,2.6-6.4c1-1.5,2.4-2.8,4.2-3.7c1.8-0.9,3.9-1.4,6.3-1.4c2,0,3.7,0.3,5,0.9c1.3,0.6,2.2,1.4,2.7,2.4
	c0.5,1,0.8,2,0.8,3C296.8,14,296.5,15.5,296,17.6z M287.5,15.4c0.4-1.5,0.6-2.5,0.5-2.9c-0.1-0.4-0.3-0.6-0.9-0.6
	c-0.5,0-0.9,0.2-1.2,0.6c-0.3,0.4-0.6,1.3-1,2.9l-3.6,13.4c-0.4,1.4-0.5,2.3-0.5,2.7c0.1,0.4,0.3,0.6,0.8,0.6c0.5,0,0.9-0.2,1.2-0.6
	c0.3-0.4,0.6-1.2,0.9-2.5L287.5,15.4z"/>
<path class="st0" d="M300,29.4l-2,7.4h-6.8l2-7.4H300z"/>
<path class="st1" d="M298.1,39l-2.2,8.2H0L2.2,39H298.1z"/>
</svg>
